<?xml version="1.0" encoding="UTF-8" standalone="no"?>
<svg
   xmlns:dc="http://purl.org/dc/elements/1.1/"
   xmlns:cc="http://creativecommons.org/ns#"
   xmlns:rdf="http://www.w3.org/1999/02/22-rdf-syntax-ns#"
   xmlns:svg="http://www.w3.org/2000/svg"
   xmlns="http://www.w3.org/2000/svg"
   xmlns:xlink="http://www.w3.org/1999/xlink"
   xmlns:sodipodi="http://sodipodi.sourceforge.net/DTD/sodipodi-0.dtd"
   xmlns:inkscape="http://www.inkscape.org/namespaces/inkscape"
   height="128"
   width="128"
   version="1.1"
   id="svg885"
   sodipodi:docname="icon.svg"
   inkscape:version="1.0.1 (3bc2e813f5, 2020-09-07)"
   inkscape:export-filename="C:\Users\pol\code\godot\gecoduet\art\gecoduet\gecoduet_icon_vectorized.png"
   inkscape:export-xdpi="384.00003"
   inkscape:export-ydpi="384.00003">
  <metadata
     id="metadata891">
    <rdf:RDF>
      <cc:Work
         rdf:about="">
        <dc:format>image/svg+xml</dc:format>
        <dc:type
           rdf:resource="http://purl.org/dc/dcmitype/StillImage" />
        <dc:title></dc:title>
      </cc:Work>
    </rdf:RDF>
  </metadata>
  <defs
     id="defs889">
    <linearGradient
       inkscape:collect="always"
       id="linearGradient83">
      <stop
         style="stop-color:#000000;stop-opacity:1;"
         offset="0"
         id="stop79" />
      <stop
         style="stop-color:#000000;stop-opacity:0;"
         offset="1"
         id="stop81" />
    </linearGradient>
    <radialGradient
       inkscape:collect="always"
       xlink:href="#linearGradient83"
       id="radialGradient85"
       cx="52.283596"
       cy="69.41732"
       fx="52.283596"
       fy="69.41732"
       r="57.251522"
       gradientUnits="userSpaceOnUse"
       gradientTransform="matrix(-0.51448275,0.36483884,-0.5898243,-0.7943804,114.78793,110.56906)" />
  </defs>
  <sodipodi:namedview
     pagecolor="#ffffff"
     bordercolor="#666666"
     borderopacity="1"
     objecttolerance="10"
     gridtolerance="10"
     guidetolerance="10"
     inkscape:pageopacity="0"
     inkscape:pageshadow="2"
     inkscape:window-width="2560"
     inkscape:window-height="1377"
     id="namedview887"
     showgrid="false"
     inkscape:zoom="11.90625"
     inkscape:cx="64.693928"
     inkscape:cy="81.921832"
     inkscape:window-x="-8"
     inkscape:window-y="-8"
     inkscape:window-maximized="1"
     inkscape:current-layer="layer1"
     inkscape:document-rotation="0" />
  <ellipse
     style="display:none;fill:#000000;fill-opacity:1;stroke-width:7.17063"
     id="path1027"
     cx="63.751476"
     cy="63.341331"
     rx="61.3494"
     ry="59.508324" />
  <g
     inkscape:groupmode="layer"
     id="layer1"
     inkscape:label="gradient"
     style="display:inline">
    <ellipse
       style="display:inline;fill:url(#radialGradient85);fill-opacity:1;stroke-width:1.08633"
       id="path47"
       cx="57.719223"
       cy="65.469109"
       rx="63.466743"
       ry="60.94706" />
  </g>
  <g
     inkscape:groupmode="layer"
     id="layer2"
     inkscape:label="white"
     style="display:inline">
    <rect
       style="fill:#ffffff;stroke-width:1.03398"
       id="rect100"
       width="126.07113"
       height="58.792652"
       x="0.6114397"
       y="16.863352" />
  </g>
  <g
     id="g985"
     style="display:inline"
     transform="matrix(1.3549915,0,0,1.3777541,-24.147618,-24.006746)">
    <path
       style="fill:#e4dad2;stroke-width:0.242188"
       d="m 90.488873,53.781606 -1.180279,-2.468395 0.08293,-0.256215 0.08293,-0.256215 0.228344,-2.421875 0.228344,-2.421875 0.586115,-0.589145 0.586114,-0.589145 0.275757,0.710239 0.275757,0.710239 0.134249,5.02539 0.13425,5.025391 h -0.12711 -0.127112 z"
       id="path1023" />
    <path
       style="fill:#cbd9b6;stroke-width:0.242188"
       d="m 66.90625,97.088204 v -4.260919 l 1.425143,-0.719408 1.42514,-0.719411 -1.181466,-1.282124 -1.181463,-1.282123 -8.7e-5,-0.726563 -8.7e-5,-0.726562 0.235035,-1.435266 0.235036,-1.435266 0.242214,-0.242215 0.242214,-0.242214 0.528051,0.466543 0.528051,0.466543 1.066953,2.268507 1.066952,2.26851 -0.118963,0.310012 -0.118962,0.310012 0.805871,4.884518 0.80587,4.884517 0.101079,0.101077 0.101077,0.101078 1.456513,-0.25656 1.456513,-0.256561 0.404502,-0.684766 0.404501,-0.684766 0.01925,-2.868883 0.01925,-2.868883 0.547836,1.574219 0.547835,1.574219 0.78483,1.9375 0.784828,1.9375 0.343403,0.382351 0.343402,0.38235 v 0.25422 0.25423 l -4.298828,0.15396 -4.298828,0.15396 -2.361328,0.14379 -2.361328,0.14379 v -4.260916 z m -3.625448,1.047947 -0.0074,-2.555257 1.119129,-0.543713 1.119127,-0.543716 0.08218,0.08218 0.08218,0.08218 -0.964877,2.62476 -0.964878,2.62476 -0.229063,0.392025 -0.229063,0.39204 -0.0074,-2.555255 z m -0.0074,-5.996707 v -1.875418 l 0.377014,-0.538262 0.377015,-0.538264 h 0.394861 0.394857 l -0.663225,-0.692259 -0.663228,-0.692259 0.073,-1.510027 0.07299,-1.510027 2.832458,3.231583 2.832458,3.231583 -1.25824,0.322039 -1.258239,0.322037 -0.726562,0.381048 -0.726563,0.381048 -1.029297,0.681298 -1.029297,0.681297 z m 23.691457,-0.71171 -0.360181,-0.423828 -0.50102,-1.210937 -0.501023,-1.210938 -0.52553,-1.779058 -0.525533,-1.779061 0.09427,-0.09426 0.09427,-0.09427 0.818063,0.844028 0.818063,0.844028 0.255227,0.0086 0.255225,0.0086 1.647504,2.413238 1.647505,2.413239 -0.19438,-0.0037 -0.194379,-0.0037 -0.360826,-0.228126 -0.360823,-0.228126 -0.803411,0.474021 -0.803408,0.474024 h -0.06971 -0.06971 L 86.964873,91.42768 Z m -8.551037,-0.947839 0.422687,-0.645105 0.476744,-0.80802 0.476744,-0.80802 h 0.544011 0.544009 l 0.423634,0.46811 0.423632,0.468109 -0.166903,0.759915 -0.166906,0.759916 -0.31677,-0.121556 -0.316769,-0.121557 -1.151851,0.346658 -1.151851,0.346655 h -0.23155 -0.231551 z m 9.165198,-3.906063 -0.760788,-0.413676 -0.854699,-1.029137 -0.854699,-1.029137 -0.164145,-0.787269 -0.164145,-0.787269 -0.358859,-0.565934 -0.358861,-0.565937 0.129153,-0.129151 0.129152,-0.129154 0.877334,0.164591 0.877333,0.164588 0.355752,0.893778 0.355754,0.893781 0.22314,0.484375 0.223141,0.484375 0.600332,1.392578 0.600332,1.392578 -0.04722,-0.01015 -0.04722,-0.01015 -0.760789,-0.413678 z m -36.293899,0.01538 -0.484375,-0.120232 -1.082018,-1.062612 -1.082022,-1.062612 0.960928,0.0094 0.960925,0.0094 0.787109,1.070217 0.78711,1.070217 v 0.131276 0.131275 l -0.181641,-0.02809 -0.181641,-0.02809 z m 20.739763,-2.489872 -2.99461,-1.40965 -0.234929,-0.234929 -0.234929,-0.234929 1.130517,-0.43175 1.130517,-0.431748 1.351154,0.706602 1.351154,0.706601 0.56623,0.315951 0.566227,0.315948 v 0.228974 0.228971 h 0.345645 0.345645 l -0.09613,0.759602 -0.09613,0.759604 -0.06787,0.0652 -0.06787,0.06521 z m 8.077479,0.183869 0.174515,-0.544922 0.05199,-0.501815 0.05199,-0.501815 0.353989,-0.505387 0.353989,-0.50539 0.535767,0.930916 0.535767,0.930915 -0.450607,0.143019 -0.450607,0.143017 -0.432757,0.478192 -0.43276,0.478192 H 80.16078 79.927882 Z m -17.640804,-0.594127 -0.138321,-0.919545 -0.156121,-0.901669 -0.156119,-0.901671 0.691748,-0.276019 0.69175,-0.276016 0.642836,-0.335984 0.642836,-0.335985 h 0.173929 0.173927 l -0.280957,0.338532 -0.280959,0.338535 0.666047,0.523912 0.666047,0.523912 0.415931,-0.108769 0.415928,-0.108768 0.735807,0.154527 0.735809,0.154526 -0.173903,0.274359 -0.173903,0.274358 -2.421875,1.166052 -2.421875,1.166053 -0.155121,0.0846 -0.155121,0.0846 z m -13.683413,-1.322744 -1.538224,-1.68702 0.117373,-0.117373 0.117374,-0.117374 1.221795,0.162077 1.221795,0.162076 0.317188,0.758219 0.317188,0.758219 -0.05758,0.181641 -0.05759,0.181635 h 0.203312 0.203314 l 0.264861,0.581306 0.264861,0.581306 -0.145257,0.145257 -0.145257,0.145256 -0.383465,-0.0241 -0.383463,-0.0241 -1.538225,-1.687017 z m 29.510881,1.004035 -0.363281,-0.239398 -1.089844,-0.345873 -1.089843,-0.345872 -2.421875,-0.926862 -2.421875,-0.926858 -0.04158,-0.482208 -0.04158,-0.482207 -0.250913,-1.843059 -0.250914,-1.843059 -0.470548,-1.698032 -0.470551,-1.698035 -0.399372,-0.69719 -0.399372,-0.697188 0.127884,1.210938 0.127885,1.210937 0.159175,1.974388 0.159173,1.974387 -1.296221,0.740305 -1.296224,0.740301 -0.435361,-0.393995 -0.435361,-0.393998 0.168403,-0.504288 0.1684,-0.504287 1.024911,-3.511719 1.024908,-3.511719 h 0.109856 0.109854 l 1.857627,2.300782 1.857629,2.300781 0.294851,0.363281 0.294851,0.363281 3.041442,3.753907 3.041441,3.753906 0.180786,0.302734 0.180785,0.302735 -0.195932,-0.0037 -0.195934,-0.0037 -0.363282,-0.239398 z m 7.810547,-2.345978 -0.544922,-0.104957 v -0.192406 -0.192406 l -0.96875,-0.671344 -0.96875,-0.671343 V 78.667844 78.14375 l 0.290625,-0.290625 0.290625,-0.290625 h 0.425255 0.425255 l 0.979433,1.67702 0.979432,1.677023 v 0.139383 0.139387 l -0.18164,-0.03298 -0.181641,-0.03298 z M 49.443983,80.10483 48.621059,79.498722 48.197231,79.350022 47.773402,79.201321 V 78.65001 78.098699 l 0.38309,-0.147005 0.383088,-0.147006 h 0.21474 0.21474 l 0.976391,1.32169 0.976389,1.32169 v 0.131435 0.131435 h -0.327467 -0.327464 z m 30.614491,-0.120454 0.274248,-0.726563 0.370731,0.0033 0.370731,0.0033 0.533488,0.143043 0.533488,0.143044 -0.689544,0.580213 -0.689542,0.580211 h -0.488923 -0.488923 l 0.274246,-0.726562 z m -32.524229,-4.298828 0.003,-1.634766 0.837293,1.453125 0.837293,1.453125 0.0073,0.181641 0.0073,0.18164 h -0.847656 -0.847657 l 0.003,-1.634765 z m 36.624596,0.780674 -1.268251,-0.854088 v -1.738289 -1.738289 l 1.11027,1.805268 1.110267,1.805271 0.483704,0.787109 0.483702,0.787109 h -0.32572 -0.325721 z m -9.070687,-7.077549 -0.369697,-0.423828 -0.324512,-0.605469 -0.324512,-0.605469 0.07516,-2.240234 0.07516,-2.240235 H 73.975379 73.73097 l -1.006642,-0.659067 -1.006643,-0.659067 0.803268,-0.678345 0.803266,-0.678346 0.847874,-0.693751 0.847877,-0.693751 1.937279,1.806659 1.937282,1.80666 -0.291049,0.119696 -0.291048,0.119699 0.393191,0.824532 0.393191,0.824535 -1.21511,1.284802 -1.215113,1.284803 -0.420166,1.265001 -0.420166,1.265003 h -0.185189 -0.185186 z m -27.749558,-26.862631 -0.04957,-2.220051 -0.212388,-0.08073 -0.212387,-0.08073 -0.903872,-1.816406 -0.903876,-1.816406 -0.579051,-0.770951 -0.579051,-0.77095 v -0.137253 -0.137252 l 0.302735,0.01 0.302734,0.01 1.210938,1.624814 1.210937,1.624817 0.121094,-4.062153 0.121094,-4.06215 0.966364,1.806198 0.966362,1.8062 -0.724174,1.408296 -0.724177,1.408297 -0.132072,4.238281 -0.132075,4.238281 -0.04957,-2.220053 z m 40.399452,-0.345926 -0.0037,-0.386292 -0.484505,-0.438473 -0.484504,-0.438471 0.484504,-0.33936 0.484505,-0.33936 V 35.717534 31.19691 l 1.228547,1.688655 1.228547,1.688655 1.22125,2.412567 1.22125,2.412568 -0.210846,0.07028 -0.210848,0.07028 -2.035163,1.197801 -2.035164,1.197804 -0.200078,0.315439 -0.200076,0.315442 -0.0037,-0.386291 z"
       id="path1019" />
    <path
       style="fill:#eba668;stroke-width:0.242188"
       d="m 62.183594,64.358011 -3.390625,-4.461055 v -0.188712 -0.188713 l 2.785156,-5.538426 2.785156,-5.538424 0.777027,-0.879545 0.77703,-0.879542 0.02047,5.933594 0.02047,5.933593 0.21078,4.717309 0.210778,4.717306 -0.229688,0.429178 -0.229688,0.429176 -0.173118,-0.01235 -0.173121,-0.01235 -3.390625,-4.461053 z m 19.412197,2.124411 -1.098681,-1.876953 -0.165196,-0.434284 -0.165198,-0.434283 -0.446018,0.403639 -0.44602,0.403642 -0.297396,-0.652717 -0.297399,-0.652717 0.302059,-0.186683 L 79.284,62.865385 77.110711,60.881313 74.937422,58.897238 74.7801,59.151789 74.62278,59.406338 74.408473,59.27389 74.194164,59.14144 72.453669,55.93986 70.713171,52.738281 70.1236,51.807855 l -0.589572,-0.930424 0.09878,-0.09878 0.09878,-0.09878 0.818601,1.029205 0.818601,1.029202 0.204195,0.08526 0.204196,0.08526 0.410239,0.43161 0.410241,0.431612 5.762171,4.035667 5.762174,4.03567 0.413608,0.151316 0.41361,0.151316 1.143866,1.148943 1.143866,1.148942 -2.144457,1.957749 -2.144456,1.957752 H 82.82126 82.694477 Z m 11.345615,-0.599581 -2.179687,-2.429809 0.02422,-0.210892 0.02422,-0.21089 0.05272,-3.572266 0.05272,-3.572265 0.26721,0.605469 0.267208,0.605468 1.509199,2.664063 1.509196,2.664062 0.0217,1.574219 0.0217,1.574219 0.57535,0.484375 0.575351,0.484375 -0.104013,0.726562 -0.104014,0.726563 -0.166691,0.158277 -0.166692,0.158279 -2.179688,-2.429809 z m -25.218609,-1.761747 0.149696,-2.421875 0.0086,-4.359375 0.0086,-4.359375 0.214002,0.365117 0.213999,0.365119 1.017195,2.662225 1.017195,2.662226 0.542446,1.503931 0.542445,1.503934 -1.558918,1.886691 -1.558919,1.886694 -0.373037,0.363281 -0.373037,0.363282 0.149697,-2.421875 z m -24.760148,-3.66242 -0.544055,-1.907893 -0.137816,-0.484375 -0.137817,-0.484375 0.602545,0.556133 0.602546,0.55613 0.76639,1.067178 0.766388,1.06718 -0.687064,0.768957 -0.687064,0.76896 z"
       id="path1013" />
    <path
       style="fill:#afa399;stroke-width:0.242188"
       d="m 75.439354,98.093248 -0.54893,-0.264592 0.124319,-0.391695 0.12432,-0.391695 0.348028,-1.325369 0.348026,-1.325366 0.382567,-0.908203 0.382566,-0.908203 h 0.117844 0.117844 v 2.90625 2.90625 l -0.423829,-0.0164 -0.423828,-0.0164 -0.548927,-0.264595 z M 43.65625,84.42791 v -0.162135 l 1.337793,-1.777419 1.337793,-1.777419 h 0.236426 0.236425 v 0.605469 0.605469 h -0.31827 -0.318268 l -0.774133,1.033184 -0.774133,1.033184 -0.481816,0.300899 -0.481817,0.300901 z m 0.726562,-3.870386 v -0.165853 l 0.987193,-1.307526 0.987193,-1.307527 0.284291,0.09465 0.284292,0.09465 0.08453,0.436085 0.08453,0.436085 -0.69,0.577257 -0.689999,0.577259 -0.666016,0.365385 -0.666016,0.365386 z m 36.63086,-1.228443 -0.544922,-0.104957 v -0.361058 -0.361055 l 0.906188,0.07516 0.906191,0.07517 0.08032,0.423828 0.08032,0.423828 -0.441588,-0.03298 -0.441585,-0.03298 z m -54.061038,-11.164546 9.165823,-15.716482 1.87083,-3.087941 3.790682,-6.428813 0.302108,14.40854 -0.135543,0.06536 -0.135542,0.06536 -6.494302,6.755118 -6.494304,6.755121 -2.05204,0.747533 -2.303278,0.821673 z m 57.34976,-7.008754 -0.361305,-0.425312 -3.431482,-4.879553 -3.431482,-4.879555 V 40.276075 29.58079 l 0.223554,0.138163 0.223556,0.138165 0.149274,0.784332 0.149275,0.784331 1.070648,4.480469 1.070646,4.480469 1.13326,4.964843 1.133263,4.964844 1.277532,5.570313 1.277534,5.570312 -0.06149,0.06203 -0.06148,0.06203 z m -29.87222,-3.997578 1.849971,-3.451172 2.190223,-4.480469 2.19022,-4.480468 2.699003,-4.503702 2.699003,-4.503702 0.06531,5.338842 0.06531,5.338839 -4.668159,4.735175 -4.668159,4.735173 -1.904526,2.361328 -1.904529,2.361328 H 52.81202 52.580205 Z m 33.794141,1.14281 0.0056,-0.234607 0.473244,-3.148437 0.473244,-3.148438 0.01783,-0.242187 0.01783,-0.242188 1.092823,2.144268 1.092825,2.144267 -0.0818,0.03542 -0.0818,0.03542 -1.507656,1.445545 -1.507659,1.445542 0.0056,-0.234605 z m -37.717118,-3.322497 0.110062,-0.302735 2.26756,-7.668729 2.267561,-7.668729 0.169652,0.10485 0.169655,0.104853 0.766484,1.987562 0.766485,1.987563 0.710862,1.408204 0.710859,1.408207 -0.177366,0.293109 -0.177364,0.29311 -3.727336,4.177735 -3.727336,4.177734 h -0.119919 -0.119921 z m 13.040653,-16.690151 -0.261245,-0.807896 -0.47174,-1.9375 -0.471742,-1.9375 L 62.159905,33 l -0.183219,-0.605469 0.951111,0.823372 0.951109,0.82337 0.908203,0.810764 0.908203,0.810764 -0.0085,0.182272 -0.0085,0.182271 -0.934555,1.534459 -0.934558,1.534456 -0.261246,-0.807894 z"
       id="path1011"
       sodipodi:nodetypes="cccccccccccccccccccccccccccccccccccccccccccccccccccccccccccccccccccccccccccccccccccccccccccccccccccccccccccccccccccccccccccccccccccccccccccccccccccc" />
    <path
       style="fill:#82716a;stroke-width:0.242188"
       d="m 85.186102,60.710428 0.355929,-1.190897 1.827191,-6.054687 1.827193,-6.054688 0.110965,-0.466596 0.110968,-0.466596 0.254685,-0.254684 0.254684,-0.254685 -0.145785,1.811125 -0.145784,1.811124 -0.324195,1.574218 -0.324197,1.574219 -0.433303,3.027344 -0.4333,3.027344 -1.645489,1.554177 -1.645488,1.554176 z m -37.423171,-8.603011 -2.048087,-4.12323 -0.423828,-0.385098 -0.423829,-0.3851 v -0.25218 -0.25218 L 45.505594,45.788408 46.144,44.867187 h 0.785826 0.785823 l 5.659697,-10.272842 5.659696,-10.272844 0.08978,0.08978 0.08978,0.08978 0.21451,1.148211 0.214508,1.148211 0.195991,0.13446 0.19599,0.13446 0.794336,2.058594 0.794336,2.058594 0.200871,0.484375 0.200867,0.484375 0.11843,0.605468 0.11843,0.605469 0.740323,2.893213 0.740324,2.893213 -0.09166,0.09166 -0.09166,0.09166 -4.168311,-0.271795 -4.168308,-0.271795 -0.09943,0.09943 -0.09943,0.09943 -2.528629,8.542951 -2.528629,8.542951 -0.07822,0.07822 -0.07822,0.07822 z m 25.741906,-6.187634 -3.452194,-4.880999 3.452194,-5.523497 3.452194,-5.523498 0.06532,5.120534 0.06531,5.120534 -0.06531,5.283962 -0.06532,5.283962 z"
       id="path1005" />
    <path
       style="fill:#728162;stroke-width:0.242188"
       d="m 63.51936,100.53801 0.0037,-0.0888 1.388841,-3.734118 1.388844,-3.734115 0.302734,-0.10052 0.302735,-0.10052 -0.0024,3.350262 -0.0024,3.35026 -1.269101,0.44206 -1.269104,0.442061 -0.423828,0.13111 -0.423828,0.13111 0.0037,-0.0888 z m 16.431726,-0.50819 -0.396567,-0.568189 -0.969845,-2.412456 -0.969842,-2.412456 -0.268354,-0.823249 -0.268353,-0.823251 v -0.07679 -0.07679 l 0.857046,0.505668 0.857043,0.505671 1.383191,1.297267 1.383189,1.297268 0.18164,0.0053 0.181641,0.0053 v 0.484375 0.484375 h 0.226421 0.226421 l 0.681782,-0.260778 0.681782,-0.260778 -0.660496,-0.570514 -0.660494,-0.570513 0.34349,-0.822087 0.34349,-0.822088 -0.944037,-1.576311 -0.94404,-1.576309 0.271596,-0.884941 0.271597,-0.884944 -0.440668,-0.48693 -0.440667,-0.486932 h -0.46702 -0.467022 l 0.0885,-0.181641 0.0885,-0.18164 0.333838,-0.666016 0.333839,-0.666016 h 0.170653 0.17065 l 0.638176,0.50199 0.638176,0.501989 -0.14509,0.907329 -0.145087,0.907331 0.508323,0.948423 0.508324,0.948421 v 0.427415 0.427415 h 0.208439 0.208441 l -0.120345,-2.300781 -0.120348,-2.300782 h 0.117955 0.117953 l 0.762704,0.265881 0.762701,0.265878 0.0077,1.368888 0.0077,1.368885 0.355577,-0.470118 0.35558,-0.470117 v 1.35802 1.358021 l -0.726563,0.321608 -0.726562,0.321608 v 0.215774 0.215772 l 1.629846,2.188985 1.629845,2.188988 -0.306762,0.102254 -0.306762,0.102254 -0.692029,0.582303 -0.692029,0.582304 h -0.253931 -0.253929 l -0.831679,0.490703 -0.831679,0.490694 -1.543493,0.12861 -1.543492,0.12861 -0.39657,-0.56818 z m -7.095447,-0.488804 -0.114525,-0.544922 -0.620562,-3.875 -0.620562,-3.875 -0.136424,-0.666016 -0.136427,-0.666016 h 1.209998 1.209998 l 0.08364,0.250912 0.08364,0.250911 0.965843,0.343928 0.965842,0.343925 1.074964,0.01063 1.074963,0.01063 -0.551102,0.513433 -0.551105,0.51343 -0.48145,1.121336 -0.481449,1.121333 -0.345926,1.325366 -0.345926,1.325369 -0.130491,0.411135 -0.130488,0.411135 0.857833,0.310198 0.857833,0.310197 -0.0077,0.132987 -0.0077,0.132988 -0.306062,0.402399 -0.306062,0.402402 -1.426029,0.263614 -1.426027,0.26362 h -0.072 -0.072 l -0.114525,-0.544926 z m -18.821553,-2.713876 -0.875232,-0.594733 -2.026692,-1.018553 -2.026693,-1.018551 -0.788534,-0.579814 -0.788536,-0.579814 -0.301307,0.158706 -0.301311,0.158703 0.904595,-0.811309 0.904597,-0.811306 1.714728,-1.453125 1.714729,-1.453125 7.855284,-9.164591 7.855286,-9.164593 v 0.241071 0.241071 l -1.076429,3.595397 -1.076429,3.595395 0.459422,0.466111 0.459425,0.466112 -0.41229,0.302904 -0.412293,0.302906 0.605469,0.226385 0.605469,0.226382 0.908203,0.165964 0.908203,0.165966 V 80.24353 79.996363 l 0.634928,0.241401 0.634926,0.241398 0.305539,-0.253576 0.305539,-0.253575 0.149379,0.389271 0.149376,0.38927 v 0.115579 0.115579 l -0.283344,-0.175116 -0.283345,-0.175116 0.139839,0.364412 0.139839,0.364415 -1.164096,0.491818 -1.164099,0.491815 -0.297643,-0.183954 -0.297644,-0.183953 0.166415,-0.269267 0.166414,-0.269264 -0.61976,-0.03027 -0.619763,-0.03027 -0.701135,-0.03027 -0.701135,-0.03027 -0.508948,-0.46059 -0.508947,-0.460589 0.270988,-0.32652 0.270986,-0.32652 h -0.173927 -0.173929 l -0.642836,0.335985 -0.642836,0.335984 -0.69175,0.276016 -0.691748,0.276019 0.156119,0.901671 0.156121,0.901669 0.135894,0.894096 0.135894,0.894098 -2.748703,1.368195 -2.748702,1.368194 -1.75273,1.128333 -1.752733,1.128334 -0.0012,0.121094 -0.0012,0.121094 1.208942,1.290401 1.208945,1.290402 v 0.374933 0.37493 l -0.504555,2.149119 -0.504551,2.149121 h -0.0447 -0.0447 L 54.033931,96.82714 Z m -5.581472,-0.307476 -0.652858,-0.404948 -0.158299,-0.936958 -0.158296,-0.93696 0.121271,-0.121271 0.121273,-0.121273 1.465065,1.469623 1.465067,1.469623 -0.775184,-0.0064 -0.775184,-0.0064 -0.652855,-0.404948 z M 44.382812,92.85404 v -0.450648 l 0.808616,-2.516149 0.808616,-2.516149 0.414697,-1.392578 0.414698,-1.392579 h 0.199311 0.199313 l 1.173444,1.209642 1.173445,1.209642 0.298835,0.570352 0.298837,0.570349 -1.865609,2.564007 -1.865609,2.564006 -1.029297,0.01538 -1.029297,0.01537 z m 14.614173,0.02682 0.139415,-0.423828 0.675941,-1.864446 0.67594,-1.864447 1.513672,-1.854485 1.513672,-1.854488 v 0.940501 0.940499 l -0.423828,0.361244 -0.423828,0.361247 -0.884934,0.545605 -0.884934,0.545607 0.129755,1.893057 0.129752,1.893056 -1.00558,0.402353 -1.005579,0.402353 H 59.002008 58.85757 Z m -16.493795,-6.091003 0.721131,-1.59845 0.117436,-0.121094 0.117435,-0.121093 0.764544,0.880555 0.764545,0.880557 0.340189,0.100678 0.340186,0.100679 -1.943298,0.738309 -1.943298,0.738308 z m 34.938216,-0.05154 -2.179687,-1.162522 0.02228,-0.797664 0.02228,-0.797666 0.290923,0.06403 0.290925,0.06403 1.018835,0.660261 1.018834,0.660261 0.138217,0.188485 0.138216,0.188485 1.02106,-0.360252 1.021063,-0.360249 0.23248,0.61147 0.232481,0.611473 -0.360738,0.697594 -0.360741,0.697595 -0.183363,0.09859 -0.183362,0.09859 -2.179688,-1.162522 z m 1.830412,-2.498954 0.823283,-1.146402 0.186826,-0.115462 0.186823,-0.115463 v 0.178739 0.178737 l -0.294544,0.864851 -0.294543,0.864852 -0.0087,0.04086 -0.0087,0.04086 -0.706878,0.177415 -0.706877,0.177416 0.823285,-1.146404 z m -31.444491,-0.27263 -0.538265,-0.377016 0.0074,-1.499937 0.0074,-1.49994 0.266622,0.459149 0.266625,0.459148 0.819518,0.719547 0.819522,0.719548 0.497201,0.698256 0.497204,0.698258 h -1.052448 -1.052447 l -0.538262,-0.377013 z m 36.18559,-0.555881 -0.405904,-0.448519 -0.150849,-3.426481 -0.150846,-3.426481 h 0.241664 0.241662 l 0.701382,0.658157 0.70138,0.658159 -0.484375,0.09446 -0.484375,0.09447 -0.302734,0.245779 -0.302734,0.245781 v 0.542876 0.542878 l 0.908203,0.630956 0.908203,0.630957 0.306999,0.495368 0.307002,0.49537 -0.973018,-0.155591 -0.973014,-0.155593 v 0.16057 0.160568 l 0.334468,0.536399 0.33447,0.536402 0.154518,0.666015 0.154521,0.666016 h -0.330358 -0.330359 z m -2.44791,-0.840156 -0.433145,-0.804297 0.282434,-0.527734 0.282434,-0.527731 h -0.409338 -0.40934 l 0.438354,-0.484375 0.438355,-0.484375 h 0.319525 0.319525 l 0.369501,0.714535 0.3695,0.714535 v 0.701053 0.701053 L 82.689915,82.974182 82.247017,83.375 H 82.122583 81.99815 Z m -33.58914,-2.031224 -0.645226,-0.09889 -0.166978,-1.214088 -0.166981,-1.214088 -0.336794,-0.129239 -0.336793,-0.129241 0.133995,-0.216808 0.133995,-0.216812 h -0.377572 -0.377576 l 0.0073,-0.302734 0.0073,-0.302734 0.837293,-1.453125 0.837293,-1.453125 0.003,1.755859 0.003,1.755859 h 0.591175 0.591177 l 0.133712,0.216354 0.133714,0.216351 -0.603795,0.151544 -0.603796,0.151541 v 0.572609 0.572609 l 0.423828,0.148701 0.423829,0.1487 0.822924,0.606108 0.822926,0.606108 -0.822926,-0.03629 -0.822924,-0.03629 -0.645227,-0.09889 z M 82.304379,78.804539 82.135477,78.53125 h -0.732452 -0.732453 l 0.09938,-0.302734 0.09938,-0.302735 0.707912,-0.06309 0.707911,-0.06309 0.330908,0.215896 0.330911,0.215893 -0.236848,0.423222 -0.236847,0.423223 z m -2.077817,-1.274192 v -0.291383 l 1.271485,-2.263479 1.271484,-2.26348 0.0734,1.506288 0.0734,1.506287 -0.921054,0.8009 -0.921051,0.800899 -0.423828,0.247676 -0.423829,0.247675 z M 41.160045,72.988164 40.507812,72.002572 v -0.09923 -0.09924 l 1.604418,-1.005964 1.604419,-1.005967 0.06627,0.07071 0.06627,0.07071 -1.018459,2.020081 -1.018457,2.020081 z m 54.755753,-2.669889 -0.861722,-1.916101 0.213737,-0.213737 0.213736,-0.213736 0.05424,-0.65532 0.05424,-0.655319 h 0.04592 0.04592 l 1.233287,0.639853 1.233288,0.639852 v 0.195302 0.195303 l -0.616006,1.950001 -0.616004,1.950002 h -0.06945 -0.06945 z m -7.620233,-24.820405 -0.528657,-0.816445 -0.16152,-0.860982 -0.161522,-0.860981 0.365299,-0.521536 0.365299,-0.521539 2.007279,-1.181391 2.007279,-1.18139 0.08612,0.08612 0.08612,0.08612 -1.643273,3.297232 -1.643274,3.297231 -0.12525,-0.003 -0.125249,-0.003 -0.528654,-0.816445 z m -44.024168,-5.256791 -2.654388,-0.965214 -0.06464,-0.06464 -0.06464,-0.06464 1.117114,-1.922899 1.117117,-1.922901 0.109086,-0.121094 0.109089,-0.121093 0.491078,0.605468 0.491079,0.605469 0.970654,1.9375 0.970653,1.9375 0.212733,0.08073 0.212733,0.08073 v 0.464191 0.464194 L 47.107424,41.22033 46.925783,41.20628 44.271399,40.241064 Z M 85.935213,40.095726 85.280938,39.441451 84.570157,38.388272 83.859375,37.335093 V 37.105047 36.875 h 0.228494 0.228497 l 0.42919,-0.726563 0.429193,-0.726562 h 0.260637 0.260637 l 1.019176,1.038464 1.019176,1.038463 v 1.334974 1.334974 L 87.44375,40.459375 87.153125,40.75 h -0.281819 -0.281817 z m -40.334384,-3.863688 -1.220099,-1.611712 0.648045,-1.112897 0.648043,-1.112898 0.680428,-1.089844 0.680426,-1.089843 0.0046,3.814453 0.0046,3.814453 h -0.112976 -0.112973 z"
       id="path1003" />
    <path
       style="fill:#469b71;stroke-width:0.242188"
       d="m 86.115942,95.673305 -1.479068,-1.990759 2.208467,-1.258261 2.208469,-1.258261 0.40889,0.218831 0.408892,0.218833 -0.826421,1.95952 -0.826421,1.95952 v 0.226448 0.226447 l 0.965694,-0.639067 0.965693,-0.639065 0.660075,-1.362419 0.660077,-1.362416 0.27559,-0.242187 0.275588,-0.242188 0.617849,-0.847656 0.617849,-0.847656 0.664963,-1.210938 0.664959,-1.210937 0.889921,-1.089844 0.88992,-1.089844 1.911528,-3.148437 1.911524,-3.148438 2.0289,-2.421875 2.0289,-2.421875 0.20421,-0.519523 0.20421,-0.519522 0.29072,-0.09691 0.29072,-0.09691 1.09801,0.555881 1.098,0.555883 h 0.51599 0.51598 l 0.26953,-0.269523 0.26952,-0.269523 0.25263,0.156138 0.25264,0.156136 -0.17402,0.470425 -0.17403,0.470425 -5.21976,5.516009 -5.219771,5.516007 -2.406101,2.626684 -2.406102,2.626683 -0.121094,0.303529 -0.121093,0.303528 -0.913343,0.944788 -0.913344,0.944788 -1.97532,2.119141 -1.975318,2.119141 h -0.147817 -0.147816 z m -39.169006,-2.857633 0.26334,-0.358641 1.506671,-2.002338 1.506668,-2.002339 0.356395,-0.852977 0.356396,-0.852974 0.875402,0.164227 0.875401,0.164225 -0.196746,-0.336256 -0.196746,-0.336255 -0.730806,-0.939179 -0.730805,-0.939179 0.42066,-0.307595 0.42066,-0.307593 -0.618975,-1.283073 -0.576981,-1.157091 -0.28913,-0.515511 0.61465,0.02201 2.541864,1.47885 2.541865,1.47885 0.08827,0.07173 0.08827,0.07172 -1.619392,1.889593 -1.619391,1.889591 -2.101694,1.885514 -2.101693,1.885517 -0.96875,0.773905 -0.96875,0.773906 z M 37.96047,86.66959 36.60415,84.949219 31.648732,79.817498 26.693316,74.685777 26.19633,74.528041 l -0.496986,-0.157737 0.122276,-0.318648 0.122277,-0.318647 -0.407496,-0.354434 -0.407495,-0.354431 -0.335877,-0.103199 -0.335878,-0.103196 2.515565,-0.929956 2.515565,-0.929957 0.477718,-0.330479 0.477714,-0.330482 h 0.531684 0.531684 l 1.925047,3.693359 1.925047,3.69336 1.724079,2.90625 1.72408,2.90625 0.0024,-0.484375 0.0024,-0.484375 -1.222732,-5.933594 -1.222732,-5.933594 -0.475273,-2.421875 -0.475276,-2.421875 0.0645,-0.294139 0.0645,-0.294137 4.774051,6.879603 4.774051,6.879605 -0.838504,1.392473 -0.838504,1.392474 v 0.296801 0.296799 l -0.22291,0.08073 -0.222909,0.08073 -1.076594,2.300781 -1.076593,2.300781 -0.161457,0.518187 -0.161457,0.518184 -0.587675,0.112344 -0.587678,0.112341 -1.35632,-1.720372 z m 56.089901,-0.686172 -0.01913,-0.418929 0.361867,-0.913103 0.361867,-0.913105 1.067843,-3.632812 1.067846,-3.632813 0.502471,-1.089844 0.502469,-1.089843 0.005,0.96875 0.005,0.96875 -0.337876,1.695312 -0.337878,1.695313 -0.297576,1.319055 -0.297578,1.319052 -0.334597,0.334597 -0.334596,0.334596 -0.289305,0.526039 -0.289308,0.526036 -0.07839,0.484375 -0.07839,0.484375 -0.449202,0.363281 -0.449202,0.363281 -0.131142,0.363281 -0.131142,0.363282 -0.01911,-0.418927 z m -4.028005,-0.705972 -0.471585,-0.596164 -0.454525,-0.172944 -0.454526,-0.172946 -0.342847,0.284541 -0.342848,0.284539 -0.191079,-0.219814 -0.191079,-0.219814 -0.646313,-1.529635 -0.646314,-1.529637 v -0.07154 -0.07155 l 0.650019,0.124259 0.650019,0.124259 -0.681898,-1.18714 -0.681896,-1.18714 -0.495082,-0.824053 -0.495082,-0.824053 0.668345,0.167744 0.668348,0.167744 -0.10184,-0.191347 -0.101839,-0.191348 -1.281688,-2.116668 -1.28169,-2.116668 1.352128,-1.796466 1.352128,-1.796465 1.026722,-1.65718 1.02672,-1.657178 0.775133,-1.572664 0.775133,-1.572666 2.097654,2.178135 2.097656,2.178133 0.592066,1.14234 0.592069,1.142338 -1.91e-4,0.310787 -1.92e-4,0.310785 -0.72414,1.5307 -0.724141,1.5307 -0.547152,-0.170461 -0.547153,-0.170462 -0.484375,-0.188286 -0.484375,-0.188284 -1.240898,-1.293048 -1.240901,-1.293047 -0.23219,-0.4423 -0.232188,-0.442297 0.06484,2.985266 0.06484,2.985269 0.373281,1.744738 0.373283,1.744738 0.13882,2.372449 0.138819,2.37245 0.259652,0.880191 0.259649,0.880192 -0.102855,0.308566 -0.102854,0.308567 z m -16.644936,-9.104213 -0.673349,-0.88724 0.111934,-0.291695 0.111934,-0.291696 1.856261,-2.446091 1.85626,-2.446089 0.294367,-0.180602 0.294367,-0.180601 1.108761,-1.816407 1.108761,-1.816406 0.352567,-0.697371 0.352569,-0.69737 1.247118,2.149143 1.247118,2.149143 -4.173971,4.179086 -4.173968,4.179088 -0.123688,-0.0088 -0.12369,-0.0088 -0.673351,-0.88724 z m -24.735375,-0.645856 -0.384243,-0.62894 -0.37392,-0.613187 -0.373921,-0.613185 -0.231548,0.143104 -0.231548,0.143104 v -4.906479 -4.906481 l 0.204404,0.230078 0.204404,0.230078 2.350148,3.081627 2.350149,3.081626 -1.564841,2.693798 -1.564839,2.693798 z m 10.723508,-7.470736 -1.00703,-1.998047 -0.159347,-1.52057 -0.159348,-1.520571 0.13129,-0.131288 0.131288,-0.13129 0.02675,-0.28564 0.02675,-0.285641 0.03689,-1.029297 0.03689,-1.029297 0.181641,0.0094 0.181641,0.0094 0.800868,1.088468 0.800868,1.08847 -0.148275,0.46717 -0.148274,0.467173 0.630102,1.994624 0.630101,1.994625 0.142339,1.038476 0.142341,1.038476 -0.304299,0.366657 -0.304299,0.366657 h -0.330923 -0.330925 z"
       id="path1001"
       sodipodi:nodetypes="ccccccccccccccccccccccccccccccccccccccccccccccccccccccccccccccccccccccccccccccccccccccccccccccccccccccccccccccccccccccccccccccccccccccccccccccccccccccccccccccccccccccccccccccccccccccccccccccccccccccccccccccccccccccccccccccccccccccccccccccccccccccccccccccccccccccccccccccc" />
    <path
       style="fill:#ba5f30;stroke-width:0.242188"
       d="m 39.167784,70.125951 -1.135292,-1.624049 -0.106088,-0.276464 -0.10609,-0.276464 4.673451,-4.335815 4.673451,-4.335815 1.453502,-1.46756 1.453501,-1.467561 4.84375,-5.507063 4.84375,-5.507065 0.669435,-0.775376 0.669438,-0.775375 -1.591095,3.390625 -1.591096,3.390625 -2.639677,4.95559 -2.639679,4.955592 0.133789,0.130345 0.133789,0.130348 0.721172,-0.847657 0.721171,-0.847656 1.779315,-2.199457 1.779316,-2.199455 2.259091,-1.531315 2.259093,-1.531313 0.07965,-0.201536 0.07965,-0.201537 0.465649,-0.548162 0.465652,-0.548162 -1.574667,3.217512 -1.574669,3.217509 -1.11616,1.989522 -1.116162,1.989519 -2.797901,4.84375 -2.7979,4.84375 -0.227797,0.363312 h -0.1108 l -2.495977,-3.278218 -2.508629,-3.2949 -0.427074,0.561933 -0.427071,0.561936 -1.207866,2.300781 -1.207865,2.300781 -1.67391,1.029297 L 40.578023,71.75 H 40.44055 40.303074 Z m 56.387409,-3.708033 -0.993354,-0.730523 -0.08365,-1.230169 -0.08365,-1.23017 0.181447,-0.112077 0.181445,-0.112075 0.472769,0.801283 0.472767,0.801282 0.02361,0.242187 0.02361,0.242188 0.311659,0.484375 0.311657,0.484375 0.138226,0.544922 0.138226,0.544921 h -0.05071 -0.05071 l -0.993356,-0.730519 z m -7.820818,-2.539344 v -0.163328 l 1.116148,-2.82442 1.116147,-2.82442 0.447367,-0.847656 0.447369,-0.847656 0.0107,3.289712 0.0107,3.289716 -0.161987,0.161987 -0.161987,0.161984 -0.39921,-0.361278 -0.39921,-0.361281 -1.013022,0.744984 -1.013022,0.744985 V 63.878574 Z M 71.023404,55.926503 68.84375,51.410682 v -0.374017 -0.37402 l 0.476775,0.255164 0.476778,0.255161 0.577288,1.024843 0.57729,1.024843 1.731103,3.128242 1.731105,3.128241 -0.06056,0.02277 -0.06056,0.02276 -0.544956,0.458815 -0.544958,0.458815 -2.179651,-4.515819 z"
       id="path999"
       sodipodi:nodetypes="ccccccccccccccccccccccccccccccccccccccccccccccccccccccccccccccccccccccccccccccccccccccccccccccccc" />
    <path
       style="fill:#4f5c42;stroke-width:0.242188"
       d="m 65.453125,100.59138 -1.332031,-0.14216 1.09794,-0.42383 1.097942,-0.423828 h 0.294636 0.294638 v 0.605468 0.60547 l -0.06055,-0.0395 -0.06055,-0.0395 z m -3.753906,-1.152095 -1.453125,-1.032019 -5.588644,-0.0083 -5.588641,-0.0083 -0.526593,-0.560531 -0.526591,-0.560531 v -0.543047 -0.543045 l 0.538264,0.377016 0.538262,0.377013 h 0.784983 0.784983 l -1.807838,-1.801979 -1.807835,-1.801979 0.240976,-0.148933 0.240979,-0.148934 0.788536,0.579814 0.788534,0.579814 2.026693,1.018551 2.026692,1.018553 0.876167,0.59537 0.876164,0.595369 0.16801,-0.424465 0.168011,-0.424462 0.01703,0.406657 0.01703,0.406657 1.328467,0.275788 1.328468,0.275791 0.66542,-0.07698 0.665417,-0.07698 0.675386,-1.280813 0.675386,-1.280816 -0.639423,-0.838325 -0.639424,-0.838327 -0.395083,-0.01262 -0.395082,-0.01262 1.304097,-0.500846 1.304097,-0.500849 -0.130437,-1.903036 -0.130437,-1.903037 0.884933,-0.541231 0.884934,-0.541229 0.363281,-0.355051 0.363282,-0.355052 0.0841,0.467083 0.08409,0.46708 0.59817,0.635682 0.598169,0.635681 -0.592778,0.148779 -0.592781,0.148778 -0.146724,0.547571 -0.146727,0.547572 -0.0033,1.793396 -0.0033,1.793396 0.423828,-0.360368 0.423828,-0.360365 1.210938,-0.712368 1.210937,-0.712366 1.182972,-0.304618 1.18297,-0.304619 0.08172,0.08172 0.08172,0.08172 -1.350668,0.683906 -1.350667,0.683906 -0.320388,0.766794 -0.320387,0.766798 -1.220591,0.571695 -1.220594,0.571694 -0.06836,2.455725 -0.06836,2.455727 -1.453125,-1.032023 z M 81.921875,96.9375 v -0.484375 l -0.181641,-0.0053 -0.18164,-0.0053 -1.350767,-1.266183 -1.350765,-1.266183 -1.111502,-0.701571 -1.111503,-0.701573 0.248155,-0.397362 0.248158,-0.39736 1.802546,-0.505031 1.802545,-0.505031 0.860885,1.345783 0.860887,1.345782 0.255571,0.560916 0.25557,0.560916 -0.285856,0.627389 -0.285859,0.627387 0.636326,0.500534 0.636326,0.500534 -0.570984,0.316621 -0.570983,0.316621 -0.302735,0.0086 -0.302734,0.0086 z m 2.421875,-3.550573 v -0.206186 l 0.726562,-0.321608 0.726563,-0.321608 v -1.358021 -1.35802 l -0.35558,0.470117 -0.355577,0.470118 -0.0077,-1.368885 -0.0077,-1.368888 -0.762701,-0.265878 -0.762704,-0.265881 H 83.42696 83.309005 l 0.120348,2.300782 0.120345,2.300781 H 83.341251 83.132812 V 91.666335 91.23892 l -0.508324,-0.948421 -0.508323,-0.948423 0.146565,-0.916568 0.146564,-0.916568 -0.723123,-0.534629 -0.723124,-0.534629 -0.280554,-0.850093 -0.280558,-0.850093 0.632461,-0.500606 0.63246,-0.500609 0.732978,-0.563342 0.732979,-0.563343 -0.0012,-0.768689 -0.0012,-0.768688 -0.449927,-0.726563 -0.449926,-0.726562 0.352947,-0.698154 0.352945,-0.698154 -0.325573,-0.206341 -0.325572,-0.206339 -0.666016,-0.0037 -0.666144,-0.0037 v -0.2221 -0.222103 l 1.029297,-0.855285 1.029297,-0.855285 0.152609,0.169185 0.152612,0.169182 0.145037,3.487028 0.145036,3.487028 0.405904,0.448519 0.405906,0.448519 0.265198,9.69e-4 0.265198,9.69e-4 0.908203,1.122311 0.908203,1.122311 v 0.208785 0.208788 h -0.194678 -0.19468 l -0.818063,-0.844029 -0.818063,-0.844028 -0.09427,0.09427 -0.09427,0.09426 0.525533,1.779061 0.52553,1.779058 0.501023,1.210938 0.50102,1.210937 0.361523,0.425313 0.361523,0.425313 -0.09942,0.08975 -0.09943,0.08975 -1.392578,0.779541 -1.392578,0.779544 V 93.386997 Z M 43.458916,92.091578 42.6875,90.850628 V 90.7213 90.591972 l 1.608948,-1.797714 1.608946,-1.797717 0.107587,0.107585 0.107585,0.107587 -0.626222,1.814333 -0.626224,1.814335 -0.318893,1.246072 -0.318893,1.246074 z m 31.321336,-1.331765 -0.965843,-0.343928 -0.08364,-0.250911 -0.08364,-0.250912 -1.009113,-0.0055 -1.009116,-0.0055 -0.952884,-2.220346 -0.952887,-2.220346 -0.665686,-0.740922 -0.665686,-0.740922 -0.284304,0.280221 -0.284307,0.280221 -0.278692,2.102962 -0.278695,2.10296 -1.69343,-1.987565 -1.693429,-1.987567 -0.484375,-0.191328 -0.484375,-0.191329 2.357371,-1.11249 2.357371,-1.112491 h 0.269324 0.269325 l 0.642836,0.359852 0.642836,0.359852 4.722656,2.274106 4.722656,2.27411 0.402593,0.332838 0.402594,0.332836 -0.969598,1.513672 -0.969595,1.513672 -1.007217,-0.01063 -1.007214,-0.01063 -0.965842,-0.343925 z m -24.921975,-3.184931 -0.142963,-0.450437 -1.24945,-1.269254 -1.24945,-1.269254 h -0.185681 -0.18568 l -0.341596,1.029297 -0.341593,1.029297 -0.597724,0.07184 -0.597726,0.07185 -0.800497,-0.996113 -0.800498,-0.996112 0.448151,-0.339516 0.448149,-0.339515 0.13663,-0.0077 0.136627,-0.0077 0.816586,-1.089843 0.816587,-1.089844 h 0.318268 0.318271 V 81.316409 80.71094 h -0.125907 -0.125906 l -1.432454,0.582059 -1.432454,0.582057 0.263083,-0.577402 0.263081,-0.577404 0.426369,-0.135322 0.426369,-0.135325 0.89776,-0.71345 0.89776,-0.713451 0.213335,0.13185 0.213339,0.131849 v 2.162356 2.162357 l 0.908203,0.582054 0.908203,0.582052 0.802398,0.796702 0.802402,0.796705 -0.153523,0.622327 -0.153523,0.62233 -0.200991,0.206019 -0.200992,0.206022 z m 26.970124,-2.859328 -1.324495,-0.843781 -0.423828,-0.0062 -0.423828,-0.0062 V 83.630404 83.40143 L 74.08391,83.085482 73.51157,82.769531 72.025316,81.978934 70.539062,81.18834 V 80.967274 80.74621 l 0.666016,0.09421 0.666016,0.09421 1.9375,0.753532 1.9375,0.75353 0.784445,0.235113 0.784443,0.235114 0.958779,0.429258 0.958777,0.429257 -0.539822,0.89445 -0.539821,0.894449 z m -9.351133,-4.477856 -0.761014,-0.181473 -0.4275,-0.164046 -0.427499,-0.164048 0.46195,-0.423671 0.461951,-0.42367 1.182776,-0.688334 1.182779,-0.688333 -0.158713,-1.968858 -0.158713,-1.968859 -0.127885,-1.210937 -0.127884,-1.210938 0.415567,0.726563 0.415567,0.726562 0.565207,2.1669 0.565206,2.166898 v 0.740951 0.740948 l 0.213679,0.745058 0.21368,0.745056 -0.447858,0.279693 -0.447858,0.27969 -0.613478,-0.233243 -0.613478,-0.233244 v 0.236194 0.236193 l -0.302734,-0.02479 -0.302735,-0.02479 z m -22.729891,-34.129355 0.171704,-0.575251 -0.242757,0.150032 -0.242756,0.150031 -0.135894,-0.354134 -0.135894,-0.354134 0.268351,-0.16585 0.268351,-0.16585 0.326539,0.44657 0.326541,0.446572 v -0.169212 -0.169209 l -1.832647,-2.928548 -1.832645,-2.928546 0.07679,-0.06919 0.07679,-0.0692 2.724609,0.972116 2.724609,0.972119 V 42.96083 44.625 h -0.584517 -0.584517 l -0.772176,1.029297 -0.772176,1.029297 z m 2.799971,-5.479437 0.0074,-4.117187 0.790287,-1.536338 0.790287,-1.536339 1.039861,2.301569 1.039861,2.301568 -1.837552,3.351957 -1.837551,3.351958 0.0074,-4.117188 z m 37.958122,0.540008 -2.107811,-3.20407 -0.158335,-0.423828 -0.158335,-0.423829 h 0.340898 0.340896 l 0.694018,1.097965 0.694017,1.097964 1.261916,1.226503 1.261915,1.226503 -0.03068,1.307912 -0.03069,1.307911 v -0.0045 -0.0045 z m 0.991739,-4.894636 -1.116071,-1.056378 1.116071,-1.774966 1.116072,-1.774965 0.07235,1.523163 0.07235,1.523163 -0.07235,1.308181 -0.07235,1.30818 z"
       id="path997" />
    <path
       style="fill:#306b4e;stroke-width:0.242188"
       d="m 57.722255,95.797458 -1.043961,-1.866607 0.444094,-0.858002 0.444097,-0.858005 0.527015,-0.805535 0.527012,-0.805538 0.161069,0.260616 0.161067,0.260613 -0.195932,0.0037 -0.195935,0.0037 0.335493,0.212471 0.335493,0.212471 -0.274946,0.78871 -0.274946,0.788711 v 0.206045 0.206049 h 0.334536 0.334536 l 0.633083,0.830013 0.633081,0.830013 -0.617082,1.22858 -0.617082,1.228581 H 59.069581 58.766214 L 57.722255,95.79744 Z m 30.51361,-0.128006 0.01712,-0.306171 0.783634,-1.816406 0.783634,-1.816406 0.41206,0.07159 0.41206,0.07159 -0.5021,-0.963301 -0.502101,-0.963298 -0.347425,-0.288339 -0.347428,-0.288339 V 89.036747 88.703119 H 88.735316 88.52531 l -0.641087,-0.96875 -0.64109,-0.96875 h 0.140452 0.140452 l 0.489197,0.26181 0.489194,0.261809 0.104657,-0.104654 0.104654,-0.104656 -0.471997,-1.05424 -0.471997,-1.05424 0.448016,-0.313802 0.448015,-0.313803 0.438251,0.168173 0.43825,0.168172 0.571708,0.679436 0.571705,0.679433 h 0.319746 0.319743 l 2.90424,-6.841797 2.904237,-6.841797 0.896859,-2.90625 0.896862,-2.90625 0.16529,-0.178366 0.165291,-0.178367 2.594682,3.474798 2.59468,3.474794 -0.003,0.336382 -0.003,0.336384 -2.12486,2.542969 -2.12486,2.542968 -1.911541,3.148438 -1.911535,3.148437 -0.88992,1.089844 -0.889921,1.089844 -0.664959,1.210937 -0.664962,1.210938 -0.61785,0.847656 -0.617849,0.847656 -0.275588,0.242188 -0.27559,0.242187 -0.660077,1.362416 -0.660075,1.362419 -0.965693,0.639065 -0.965694,0.639067 0.01712,-0.306171 z m 6.54511,-10.356952 0.449202,-0.363281 0.07839,-0.484375 0.07839,-0.484375 0.289307,-0.526036 0.289305,-0.526039 0.334597,-0.334596 0.334596,-0.334597 0.297579,-1.319052 0.297575,-1.319055 0.337879,-1.695313 0.337875,-1.695312 -0.005,-0.96875 -0.005,-0.96875 -0.502468,1.089844 -0.502472,1.089843 -1.067846,3.632813 -1.067843,3.632812 -0.361867,0.913105 -0.361867,0.913103 0.01913,0.418929 0.01911,0.418926 0.131142,-0.363281 0.131142,-0.363282 0.449202,-0.363281 z m -4.317675,-0.802503 -0.273982,-1.013903 -0.143297,-2.37245 -0.143298,-2.372449 -0.373283,-1.744738 -0.373281,-1.744738 -0.06484,-2.985269 -0.06484,-2.985266 0.23198,0.442297 0.231979,0.4423 1.345,1.382855 1.345001,1.382856 0.691275,0.15183 0.691279,0.15183 0.752391,0.687202 0.75239,0.687202 -0.153085,0.957346 -0.153086,0.957345 -0.749285,1.785612 -0.749282,1.78561 -0.824021,1.987572 -0.824019,1.98757 -0.438858,0.721644 -0.438858,0.721643 z m -29.334011,-7.859355 -0.253205,-1.146736 -0.158054,-2.623961 -0.158054,-2.623959 0.536833,-0.376013 0.536833,-0.37601 -0.116338,-1.032128 -0.116334,-1.032128 -0.678569,-2.212083 -0.678568,-2.212082 0.255118,-0.255118 0.255118,-0.255118 1.783512,2.336516 1.783513,2.336516 0.03976,0.651065 0.03976,0.651066 0.157792,1.15039 0.15779,1.150391 -0.197547,1.7e-5 -0.19755,1.4e-5 v 1.573907 1.573906 l -0.196865,2.42e-4 -0.196864,2.43e-4 0.07577,0.457187 0.07577,0.457187 -1.248205,1.476656 -1.248205,1.476658 -0.253207,-1.146734 z m 12.954294,-5.056388 -0.153896,-1.122796 0.01424,-1.358776 0.01424,-1.358776 0.288493,0.456272 0.288492,0.456274 0.544922,0.668532 0.544922,0.668532 -0.0067,0.449415 -0.0067,0.449413 -0.687023,0.907353 -0.687021,0.907353 -0.153898,-1.122796 z m 1.783604,-1.233037 v -0.214685 l 0.610403,-1.557556 0.610399,-1.557556 1.380065,-1.394615 1.380064,-1.394618 h 0.197744 0.197743 l -0.273982,0.544922 -0.273979,0.544922 -1.227108,2.058594 -1.227106,2.058594 -0.687123,0.563342 -0.68712,0.563343 z m -2.619192,-3.331836 -0.513621,-0.652967 0.658205,-0.827959 0.658202,-0.827959 0.07373,1.090819 0.07373,1.09082 -0.218315,0.390106 -0.218313,0.390104 z"
       id="path995" />
    <path
       style="fill:#86230d;stroke-width:0.242188"
       d="m 36.419617,66.150526 -1.221303,-1.733482 3.295211,-3.478052 3.295212,-3.478054 h 0.163237 0.163237 l 0.649426,2.299105 0.649426,2.299103 v 0.210969 0.210972 l -2.886573,2.701459 -2.88657,2.701459 z m 29.918064,0.714513 -0.153157,-1.048633 -0.15307,-9.6875 -0.153067,-9.6875 0.365802,0.363281 0.365805,0.363282 1.480161,1.685959 1.480157,1.685959 v 0.216906 0.216905 L 69.207031,50.834293 68.84375,50.69489 v 0.357895 0.357897 l 2.189779,4.536802 2.18978,4.536801 -0.797201,0.661499 -0.797202,0.661499 -0.172258,0.0065 -0.172258,0.0065 -0.359724,-1.15039 L 70.56494,59.519531 69.348483,56.398696 68.132026,53.27786 68.003514,53.149346 67.875,53.020834 67.8539,57.8444 l -0.02109,4.823569 -0.161512,2.113374 -0.161513,2.113372 -0.50948,0.50948 -0.509478,0.50948 -0.153159,-1.048636 z m 30.902553,0.52824 -0.787109,-0.479909 v -0.439497 -0.439498 l -0.258971,-0.258971 -0.258971,-0.258971 -0.05054,-0.344347 -0.05054,-0.344345 -0.59285,-0.958794 -0.592849,-0.958791 -0.185154,-0.438626 -0.185153,-0.438625 -1.430018,-2.467625 -1.43002,-2.467624 -0.176981,-0.589443 -0.176981,-0.589446 -0.381586,0.71054 -0.381583,0.710537 -1.365795,3.377767 -1.365792,3.377765 -0.269196,0.08973 -0.269196,0.08973 -1.107289,-1.155629 -1.107288,-1.155631 3.145504,-3.144485 3.145502,-3.144488 0.476039,0.430808 0.476039,0.43081 0.366188,0.771682 0.366187,0.771683 1.22398,1.398712 1.223981,1.398711 1.413842,1.864228 1.41384,1.864229 0.419174,0.647025 0.419175,0.647026 -0.295934,0.98774 -0.295936,0.98774 -0.143304,-9.69e-4 -0.143305,-9.69e-4 -0.78711,-0.479909 z M 61.57449,51.081033 64.598201,48.015625 h 0.05885 0.05885 l -0.748902,1.150391 -0.748899,1.15039 -0.372925,0.617828 -0.372926,0.617825 -1.228842,0.8353 -1.228842,0.835297 -0.731889,0.461893 -0.731888,0.461895 z"
       id="path993" />
    <path
       style="fill:#1b5143;stroke-width:0.242188"
       d="m 90.640625,85.893115 v -0.145947 l 0.605527,-1.125537 0.605529,-1.125537 0.986532,-2.300782 0.986531,-2.300781 0.587627,-1.630217 L 95,75.634097 V 75.01648 74.39886 l -0.344555,-0.132217 -0.344556,-0.13222 -0.128824,-0.335708 -0.128822,-0.335708 0.792982,-1.712002 0.792983,-1.711999 0.04642,2.12698 0.04642,2.126983 -0.33487,1.210937 -0.334868,1.210938 -1.991709,4.662109 -1.991711,4.66211 h -0.219131 -0.219134 z m -36.8125,-3.384856 -2.300781,-1.33904 -0.06798,-0.190902 -0.06799,-0.190904 -1.1201,-1.539346 -1.120098,-1.539346 0.277944,-0.09265 0.277944,-0.09265 -0.265168,-0.495472 -0.265169,-0.495474 0.257157,-0.564399 0.257157,-0.564398 4.279812,-7.336608 4.279811,-7.336605 0.110174,-0.121094 0.110171,-0.121094 -0.0957,1.144699 -0.0957,1.1447 -0.119888,0.119887 -0.119888,0.119886 0.158672,1.533 0.158671,1.532999 1.109892,2.167258 1.109895,2.167259 0.150803,2.542968 0.1508,2.542969 0.25329,1.15227 0.253291,1.15227 -1.714355,2.019297 -1.714356,2.019296 -0.766787,1.042125 -0.97462,0.970139 z m 23.133072,-1.909687 -2.417707,-3.011071 -0.07162,-0.214849 -0.07162,-0.21485 6.171807,-6.083834 6.171807,-6.083835 1.524548,-1.111123 1.524549,-1.111122 0.0735,0.348941 0.07351,0.348942 -0.549802,1.175319 -0.549804,1.175316 -1.198477,1.9375 -1.19848,1.9375 -1.33577,1.775 -1.335771,1.774999 -0.327265,-0.624609 -0.327266,-0.624608 h -0.09123 -0.09123 l -1.475256,2.62469 -1.475256,2.624687 v 0.428566 0.428567 L 80.322968,77.968767 80.66156,77.838836 80.08078,79.32081 79.5,80.802782 v 0.07517 0.07517 h 0.847656 0.847656 v 0.149192 0.149195 l -0.868283,1.182837 -0.868283,1.182838 -0.03992,-0.0038 -0.03992,-0.0038 -2.417709,-3.011071 z m -40.205065,-0.562708 -1.935274,-3.32102 -1.651823,-3.208985 -1.651823,-3.208984 h -0.544348 -0.544348 l -0.470117,0.35558 -0.470118,0.355577 -0.209158,0.0077 -0.20916,0.0077 2.967514,-3.155056 2.967513,-3.155059 0.147895,0.147671 0.147896,0.147671 0.528771,2.825747 0.52877,2.825745 1.230327,5.933594 1.230325,5.933593 -0.06378,0.414771 -0.06379,0.41477 -1.935274,-3.32102 z m 6.821107,-3.565278 -1.615604,-2.327023 2.165222,-4.284672 2.165224,-4.284672 0.369694,-0.484375 0.369694,-0.484375 4.85e-4,4.84375 4.84e-4,4.84375 -0.824651,1.437886 -0.824653,1.437884 0.408156,0.304006 0.408156,0.304009 -0.503188,0.510427 -0.503185,0.510427 -1.615607,-2.327022 z m 26.732746,-4.113093 -2.03804,-2.540944 -0.444833,0.402569 -0.444833,0.402569 -0.72624,-0.69578 -0.726238,-0.695781 0.07275,-0.218259 0.07276,-0.218262 2.050235,-2.505422 2.050236,-2.505425 0.181641,-0.01247 0.18164,-0.01247 v 0.403647 0.403644 l 0.159357,-0.159357 0.159357,-0.159357 0.325018,0.269742 0.325018,0.269741 V 64.499737 64.213602 L 71.75,64.363281 71.992187,64.51296 V 64.256481 64 h 0.242188 0.242187 v 0.619763 0.61976 l 0.242188,-0.149679 0.242187,-0.149679 v 0.151306 0.151309 l -0.252076,0.471009 -0.252076,0.471006 0.701465,0.750566 0.701465,0.750566 0.143987,2.542634 0.143988,2.542635 -0.775017,1.054176 -0.775017,1.054175 -0.124816,0.0094 -0.124819,0.0094 z"
       id="path991"
       sodipodi:nodetypes="ccccccccccccccccccccccccccccccccccccccccccccccccccccccccccccccccccccccccccccccccccccccccccccccccccccccccccccccccccccccccccccccccccccccccccccccccccccccccccccccccccccccccccccccccccc" />
    <path
       style="fill:#1c3e2e;stroke-width:0.242188"
       d="m 56.310547,97.623874 -1.029297,-0.230504 0.0086,-0.651763 0.0086,-0.651763 0.350871,-1.453125 0.350872,-1.453125 0.0038,-0.404911 0.0038,-0.404911 -1.208944,-1.290402 -1.208942,-1.290401 0.0012,-0.121094 0.0012,-0.121094 1.752733,-1.128334 1.75273,-1.128333 2.748041,-1.367862 2.748038,-1.367863 0.457774,0.07432 0.457775,0.07432 -0.859671,1.089844 -0.859671,1.089844 -0.46919,0.546765 -0.46919,0.546762 v 0.240347 0.240345 h -0.194917 -0.194915 l -0.586593,1.545534 -0.58659,1.545531 -0.300678,-0.11538 -0.300678,-0.115381 0.02102,-0.158669 0.02102,-0.158667 -0.02868,-0.237859 -0.02868,-0.237862 -0.552696,0.84333 -0.552694,0.843329 -0.446344,0.86218 -0.446345,0.86218 1.020467,1.800831 1.020467,1.800832 0.281305,0.178983 0.281308,0.178982 -0.96875,-0.02223 -0.96875,-0.02223 -1.029297,-0.230504 z m -17.591938,-7.92414 -0.918755,-0.940894 0.203587,-0.118093 0.20359,-0.118093 1.130851,-0.163861 1.130849,-0.163862 0.228966,-0.654105 0.228969,-0.654107 1.03733,-2.224865 1.037331,-2.224863 1.112544,-0.48159 1.112544,-0.48159 0.08441,0.08441 0.08441,0.08441 -0.973894,1.290014 -0.973892,1.290014 -0.985442,2.143255 -0.985443,2.143256 v 0.122891 0.12289 l 0.423828,-0.167269 0.423828,-0.167267 1.535277,-0.582485 1.535278,-0.582485 -1.263456,1.458426 -1.263459,1.458429 -0.437538,0.234164 -0.437541,0.234164 H 40.815073 39.637366 Z M 95.605469,72.95465 v -2.415026 l 0.05563,-2.42e-4 0.05562,-2.42e-4 0.489298,0.959101 0.489296,0.959101 v 0.220779 0.220775 l -0.544921,1.23543 -0.544922,1.235428 v -2.415026 z m -31.847657,1.3585 v -0.383463 l 0.181641,-2.42e-4 0.181641,-2.42e-4 V 72.355297 70.78139 l 0.19755,-1.4e-5 0.197547,-1.7e-5 -0.119224,-1.084206 -0.119224,-1.084205 -0.139657,-0.225971 -0.139658,-0.225971 0.144942,-0.377708 0.14494,-0.377711 0.913284,1.142965 0.913282,1.142963 0.626817,0.576753 0.626818,0.57675 -1.602322,1.845125 -1.602325,1.845122 -0.203026,0.08073 -0.203026,0.08073 V 74.31326 Z m 8.821155,-8.194009 0.139783,-0.423829 0.162251,-0.403009 0.162251,-0.403012 -0.283345,0.175116 -0.283345,0.175116 V 64.619763 64 h -0.242187 -0.242188 v 0.256481 0.256479 L 71.75,64.363281 71.507812,64.213602 v 0.286135 0.286135 l -0.325018,-0.269741 -0.325018,-0.269742 -0.128599,0.1286 -0.128596,0.128599 -0.1162,-0.444347 -0.116199,-0.444343 0.664565,-0.796042 0.664565,-0.796041 0.69293,0.358329 0.692932,0.358328 0.394611,0.448623 0.394611,0.448624 0.152309,0.501597 0.152309,0.501599 -0.868913,0.951526 -0.868915,0.951528 z M 31.849609,51.730229 31.546875,51.608072 v -0.343097 -0.3431 H 32.273437 33 v 0.484375 0.484375 l -0.423828,-0.01911 -0.423828,-0.01911 -0.302735,-0.122157 z m 47.283993,-23.634526 -0.239071,-0.544922 -0.787109,-0.07589 -0.78711,-0.07589 v -0.320435 -0.320439 l 1.120808,-0.168075 1.120807,-0.168076 0.271771,-0.09479 0.271771,-0.09479 0.45624,0.346316 0.456237,0.346313 -0.407054,0.857804 -0.407054,0.857804 h -0.415584 -0.415582 z m 1.160003,-0.388248 0.344708,-0.690983 -0.387515,-0.228833 -0.387517,-0.228836 -1.210937,0.280911 -1.210938,0.280913 0.847656,0.09398 0.847657,0.09398 0.23907,0.544922 0.239071,0.544921 h 0.16702 0.167019 z m -11.517694,0.542413 -0.174349,-0.174346 v -0.417757 -0.417754 l 0.562626,-0.141212 0.562628,-0.14121 0.901253,-0.611606 0.901255,-0.611608 h 0.352525 0.352526 l -0.01703,0.666016 -0.01703,0.666015 -0.189361,0.484375 -0.189359,0.484375 -0.822915,0.0186 -0.822914,0.0186 -0.612761,0.17594 -0.612763,0.175942 -0.174346,-0.174349 z m 2.222419,-0.5288 0.610199,0.0719 0.228053,-0.791251 0.228051,-0.791252 -0.128921,-0.128922 -0.128924,-0.128922 -0.918893,0.623577 -0.918891,0.623577 -0.562628,0.14121 -0.562626,0.141213 v 0.175566 0.175569 l 0.145995,0.145996 0.145998,0.145995 0.626193,-0.238078 0.626193,-0.238077 z M 53.744568,23.838352 53.34375,23.395454 v -0.283665 -0.283664 h 0.438086 0.438085 l 0.448922,0.328259 0.448921,0.328259 -0.152845,0.398303 -0.152842,0.398304 H 54.47873 54.145386 Z m 0.679425,-0.441726 -0.446259,-0.326314 h -0.233435 -0.233435 l 0.433186,0.478664 0.433184,0.478664 0.246511,-0.152351 0.246508,-0.152351 z"
       id="path989" />
    <path
       style="fill:#000100;stroke-width:0.242188"
       d="m 86.50879,96.513672 -1.04159,-1.392578 -0.567259,-0.756679 -0.567259,-0.756678 2.245768,-1.279644 2.245769,-1.279644 0.242187,0.0094 0.242188,0.0094 0.468233,0.192892 0.468233,0.19289 -1.737213,-2.507694 -1.737214,-2.507696 0.09785,-0.09785 0.09785,-0.09785 0.525859,0.281446 0.52586,0.281432 0.108735,-0.108735 0.108735,-0.108735 -1.20329,-2.83937 -1.203289,-2.839367 0.589436,0.14794 0.589438,0.147938 v -0.192912 -0.192915 l -0.322048,-0.477714 -0.322047,-0.477718 -0.791633,-1.403176 -0.791634,-1.403174 0.671891,0.168633 0.671892,0.168635 -0.506536,-0.824053 -0.506535,-0.824052 -1.057863,-1.72027 -1.057863,-1.72027 -1.384435,2.470235 -1.384439,2.470235 v 0.271732 0.271729 l 0.363282,-0.139403 0.363281,-0.139405 v 0.101084 0.101082 l -0.582456,1.486246 -0.582454,1.486247 0.965219,0.07335 0.965221,0.07335 -0.780696,1.089844 -0.780694,1.089844 -0.861918,1.188922 -0.861919,1.188921 0.631879,-0.158592 0.631882,-0.158592 0.356917,-0.136962 0.356916,-0.136961 0.275685,0.790829 0.275684,0.790829 -1.115673,1.807848 -1.115675,1.807847 -0.369939,0.564595 -0.369937,0.564597 h 0.231551 0.23155 l 1.188882,-0.360661 1.188881,-0.360658 0.03294,-0.0026 0.03295,-0.0026 1.031433,1.755859 1.031433,1.755859 0.100305,0.181641 0.100304,0.181641 H 83.053615 82.94583 l -1.032402,-1.75586 -1.032402,-1.755859 -0.03702,-0.05289 -0.03702,-0.05288 -1.549177,0.46904 -1.549176,0.469052 -0.07023,-0.07023 -0.07023,-0.07023 1.326715,-2.113076 1.326713,-2.113077 0.244703,-0.457235 0.244707,-0.457236 -0.233336,-0.613717 -0.233335,-0.613718 -1.008086,0.355672 -1.008087,0.355674 H 78.12731 78.026456 L 78.637093,84.754902 79.24773,83.712929 76.317983,80.092793 73.388239,76.472656 72.698978,75.625 72.009717,74.777344 70.245093,72.590902 68.480469,70.40446 68.276724,70.33178 68.072976,70.2591 l -7.489292,8.798181 -7.489293,8.79818 -3.064563,2.713684 -3.06456,2.713684 -0.213511,-0.131956 -0.21351,-0.131958 0.573663,-0.76532 0.573662,-0.765322 1.242705,-1.654811 1.242703,-1.654814 0.281344,-0.852483 0.281347,-0.852486 0.699571,0.139914 0.69957,0.139915 v -0.12956 -0.129568 l -0.859787,-1.126029 -0.859785,-1.126029 0.502762,-0.185983 0.502762,-0.185986 -0.732818,-1.451708 -0.732821,-1.451708 v -0.127999 -0.128 h 0.484375 0.484375 v -0.124911 -0.124911 l -1.088737,-1.496246 -1.088739,-1.496244 0.269114,-0.166323 0.269111,-0.166319 -0.906716,-1.621361 -0.906716,-1.62136 -0.809294,1.41079 -0.809296,1.410791 -0.0073,0.284977 -0.0073,0.284975 0.377445,0.07831 0.377444,0.0783 -1.00237,1.332031 -1.002371,1.332032 -0.361683,0.688522 -0.36168,0.688522 0.112775,0.112775 0.112774,0.112774 0.911018,-0.380648 0.911019,-0.380646 0.06582,0.06582 0.06582,0.06582 -1.102297,1.45103 -1.102294,1.451028 -0.949581,2.027044 -0.949579,2.027044 0.106742,0.106741 0.106742,0.106742 1.889861,-0.733835 1.889862,-0.733836 0.0534,0.0534 0.0534,0.0534 -1.820032,1.937278 -1.820034,1.937277 1.353039,-1.574219 1.353041,-1.574219 -0.186967,-0.06318 -0.186964,-0.06318 -1.547699,0.606537 -1.547697,0.606539 -0.08428,-0.08428 -0.08428,-0.08428 0.990562,-2.154387 0.990561,-2.154386 0.952058,-1.261092 0.952056,-1.261094 V 81.565736 81.431 l -0.877232,0.366531 -0.877234,0.366531 h -0.09152 -0.09152 v -0.195888 -0.195889 l 0.839185,-1.393605 0.839184,-1.393602 -4.735901,-6.826525 -4.735902,-6.826522 -0.300951,-0.31402 -0.300955,-0.31402 -3.060409,3.245738 -3.06041,3.245739 -2.108218,0.767998 -2.10822,0.767999 -0.197177,-0.197177 -0.197166,-0.197177 4.565671,-7.861915 4.565673,-7.861915 4.089602,-6.879016 4.0896,-6.879019 0.242188,-0.02184 0.242187,-0.02184 1.210938,1.872082 1.210937,1.872081 0.123383,0.0034 0.123385,0.0034 0.279227,-0.447117 0.27923,-0.447117 -1.500492,-2.398586 -1.500489,-2.398586 -0.526497,-0.859429 -0.526496,-0.859429 1.303255,-2.263351 1.303254,-2.263354 0.219894,-0.146749 0.219892,-0.146751 1.417812,-2.386898 1.417809,-2.386898 0.334853,0.449398 0.334856,0.449398 1.739187,3.565749 1.739187,3.565748 0.121094,-3.6e-5 0.121094,-3.9e-5 3.848071,-7.031701 3.848071,-7.031702 0.182329,0.196459 0.182328,0.19646 5.626316,7.628906 5.626316,7.628906 0.03999,0.04957 0.03999,0.04957 3.243842,-5.20043 3.24384,-5.200429 0.166737,0.186017 0.166734,0.186015 2.560026,3.927944 2.560023,3.927945 0.680351,-0.237891 0.680348,-0.237891 1.788342,-2.797806 1.788341,-2.797806 0.177972,0.197596 0.177974,0.197596 1.213536,1.695313 1.213539,1.695312 1.121056,2.23954 1.12106,2.239539 -1.576302,3.145674 -1.576299,3.145674 v 0.169863 0.169863 l 0.680881,-0.652325 0.680884,-0.652327 2.842479,3.468208 2.842477,3.468209 3.403857,5.554823 3.40385,5.554822 2.60208,4.601562 2.60208,4.601563 0.42807,0.847656 0.42806,0.847656 -0.23033,-0.242187 -0.23032,-0.242188 -2.91975,-5.207031 -2.91975,-5.207031 -3.404151,-5.55341 -3.404154,-5.553411 -2.737116,-3.342025 -2.737116,-3.342028 -0.790853,0.789936 -0.790854,0.789936 -0.112457,0.476596 -0.11246,0.476593 -2.18076,7.241624 -2.180761,7.241627 -0.08299,0.08298 -0.08298,0.08299 -9.299389,-13.163339 -9.29939,-13.163336 -2.36498,3.891565 -2.364983,3.891566 -5.633414,6.413048 -5.633417,6.41305 -1.453501,1.467707 -1.453502,1.467707 -4.673451,4.335815 -4.673451,4.335815 0.102498,0.265747 0.102499,0.265748 1.897607,2.722531 1.897609,2.722532 2.252215,-4.417844 2.252218,-4.417844 0.435381,-0.561936 0.435378,-0.561933 2.502266,3.286543 2.502265,3.286545 h 0.0554 0.0554 l 1.65271,-2.845704 1.652709,-2.845703 1.495384,-2.595383 1.495382,-2.59538 3.483492,4.579947 3.483492,4.579947 0.15445,-0.04706 0.15445,-0.04707 2.698441,-3.269531 2.698441,-3.269531 1.854381,-1.619741 1.854384,-1.61974 2.147617,1.960636 2.147617,1.960636 -0.302058,0.186681 -0.302059,0.186683 0.301642,0.662034 0.301642,0.662032 0.387878,-0.387878 0.387878,-0.387878 1.198353,2.104517 1.198351,2.104518 0.207795,0.220373 0.207794,0.220374 2.343157,-2.150865 2.343157,-2.150862 1.117719,-0.805966 1.11772,-0.805966 2.380836,2.494269 2.380836,2.494268 1.159996,2.421875 1.159994,2.421875 1.017761,-3.231772 1.017762,-3.231772 0.09309,0.09309 0.09308,0.09309 -0.983821,3.138685 -0.983821,3.138687 -2.908231,6.854679 -2.908229,6.854681 -0.08639,-0.08639 -0.08639,-0.08639 2.810296,-6.602441 2.810295,-6.602443 -1.135891,-2.466629 -1.135891,-2.466631 -2.347642,-2.497001 -2.347644,-2.497002 -1.524549,1.115116 -1.524548,1.115114 -6.164905,6.077031 -6.164905,6.07703 v 0.151335 0.151336 l 2.448221,3.024614 2.448222,3.024615 0.06577,0.07193 0.06576,0.07193 0.876639,-1.194222 0.876638,-1.194219 V 81.102317 80.953125 H 80.347656 79.5 l 1.21e-4,-0.06055 1.24e-4,-0.06055 0.503796,-1.325516 0.503796,-1.325517 -0.26173,-0.08724 -0.261732,-0.08724 v -0.382473 -0.382472 l 1.484721,-2.641529 1.484723,-2.64153 0.170599,0.19848 0.1706,0.198483 1.459467,2.421875 1.459471,2.421875 0.175034,0.312441 0.175033,0.312441 -0.668348,-0.167744 -0.668345,-0.167744 0.495082,0.824053 0.495082,0.824053 0.681896,1.18714 0.681898,1.18714 -0.650019,-0.124259 -0.650019,-0.124259 v 0.06025 0.06025 l 1.207709,2.856013 1.207707,2.856013 -0.09712,0.09712 -0.09712,0.09712 -0.489195,-0.261809 -0.489197,-0.26181 h -0.144818 -0.144821 l 1.703479,2.461877 1.703479,2.46188 -0.09895,0.09895 -0.09895,0.09895 -0.696037,-0.359934 -0.696034,-0.359935 -2.209705,1.258966 -2.209706,1.258966 1.087112,1.44444 1.087111,1.444438 0.480583,0.666015 0.480585,0.666016 h -0.108488 -0.108488 z m -35.786003,-6.772689 2.101694,-1.885514 1.619391,-1.889591 1.619392,-1.889593 -0.08827,-0.0726 -0.08827,-0.0726 -2.565422,-1.488981 -2.56542,-1.488981 H 50.472109 50.18834 l 0.745075,1.475985 0.745076,1.475985 -0.423194,0.309446 -0.423191,0.309445 0.730805,0.939179 0.730806,0.939179 0.196746,0.336255 0.196746,0.336256 -0.875402,-0.164225 -0.875401,-0.164227 -0.356396,0.852974 -0.356395,0.852977 -1.506668,2.002339 -1.506671,2.002338 -0.26334,0.358641 -0.263342,0.358639 0.96875,-0.773906 0.96875,-0.773905 z m 11.057669,-12.394844 5.56543,-6.513233 -0.816916,-0.791788 -0.816917,-0.791786 -3.459542,-4.549669 -3.459542,-4.549669 -0.121094,-0.0039 -0.121094,-0.0039 -3.390625,5.852347 -3.390625,5.852347 -1.30525,2.263526 -1.305252,2.263527 0.263463,0.57824 0.263464,0.57824 -0.26739,0.08913 -0.267387,0.08913 1.120098,1.539346 1.1201,1.539346 0.06799,0.186797 0.06798,0.186797 2.300781,1.346565 2.300781,1.346567 0.04306,0.0026 0.04306,0.0026 5.56543,-6.513235 z m -15.984993,0.129825 -0.403758,-0.30079 0.988285,-1.781899 0.988285,-1.781897 0.384221,0.495913 0.384223,0.495913 0.435356,0.792798 0.435356,0.792798 1.571666,-2.705549 1.571666,-2.705551 -2.48937,-3.260951 -2.48937,-3.260951 -0.560657,0.901398 -0.560659,0.901398 -2.041403,4.046996 -2.041404,4.047 1.612473,2.322508 1.612472,2.32251 0.503186,-0.510427 0.503188,-0.510427 z m 32.676664,-4.576927 4.173971,-4.179086 -1.250395,-2.178336 -1.250392,-2.178334 -0.0868,-0.107245 -0.0868,-0.107246 -1.445291,1.43021 -1.44529,1.430209 -0.60697,1.588423 -0.60697,1.588423 -0.0028,0.358144 -0.0028,0.358145 -1.580334,2.042394 -1.580336,2.042393 0.131728,0.343279 0.131731,0.343279 0.54318,0.688818 0.543181,0.688818 0.12369,0.01339 0.123687,0.01339 4.173969,-4.179088 z M 74.111328,72.872256 75.625,70.866599 V 70.506566 70.146532 L 76.234574,68.59109 76.844145,67.035648 77.97689,65.885611 79.109635,64.735574 78.703266,63.883411 78.2969,63.03125 h 0.238269 0.238268 v -0.207678 -0.207681 l -1.893535,-1.709766 -1.893538,-1.709766 -1.727902,1.493618 -1.727901,1.493617 -2.796532,3.38038 -2.796529,3.380378 v 0.146577 0.146574 l 0.72239,0.692092 0.722389,0.692092 0.444833,-0.402569 0.444833,-0.402569 2.03804,2.540944 2.038036,2.540944 0.124819,-0.01027 0.124816,-0.01027 1.513672,-2.005656 z m -47.104527,-1.237341 1.877898,-0.677047 3.051931,-3.236747 3.05193,-3.236746 0.156112,0.0077 0.156109,0.0077 1.180606,1.711224 1.180609,1.711222 1.604547,-1.53489 1.604551,-1.53489 2.664062,-2.564974 2.664063,-2.564974 1.879905,-1.796784 1.879906,-1.796786 2.532845,-8.570304 2.532848,-8.570304 0.101144,-0.101144 0.101143,-0.101145 3.837439,0.255433 3.837441,0.255432 h 0.404943 0.404945 l 1.135878,-1.9375 1.135879,-1.9375 h 0.06226 0.06226 l 1.888213,2.695242 1.888212,2.695244 0.442654,-0.576103 0.442653,-0.576101 -0.0688,-0.223607 -0.0688,-0.223607 -5.677418,-7.686692 -5.677417,-7.686672 -0.02141,0.03918 -0.02141,0.03919 -5.759897,10.474609 -5.759899,10.474609 H 46.929361 46.14399 l -0.638406,0.921221 -0.638406,0.921221 v 0.260063 0.260061 l 0.386378,0.320666 0.386377,0.320664 2.035498,4.065674 2.035497,4.065674 -0.01284,0.184331 -0.01284,0.184332 -2.106307,-4.142768 -2.106305,-4.142767 -0.565379,-0.700983 -0.565382,-0.700982 -1.280952,-1.876144 -1.280954,-1.876147 -5.688526,9.626147 -5.688527,9.626144 -2.660713,4.601562 -2.660713,4.601563 -0.307211,0.581645 -0.307211,0.581644 0.330909,-0.119023 0.330909,-0.119023 1.877895,-0.677047 z m 61.874262,-24.625962 -0.05684,-0.401205 -5.684412,-8.703865 -5.68441,-8.703868 -3.701753,5.919247 -3.701751,5.919246 6.694818,9.482699 6.69482,9.482699 0.612752,0.824111 0.612751,0.824113 2.135437,-7.120988 2.135438,-7.120986 z m -32.883066,2.256972 5.124016,-5.774149 1.175419,-1.955359 1.175418,-1.955357 -2.218847,-0.148146 -2.218847,-0.148146 -1.908578,-0.05449 -1.908578,-0.0545 -2.22857,7.507813 -2.228573,7.507812 -0.187625,0.575251 -0.187626,0.575251 0.244188,-0.150916 0.244186,-0.150915 z M 89.1875,46.063831 v -0.256479 l 0.279608,0.172806 0.279608,0.172808 -0.165872,-0.268385 -0.165869,-0.268385 1.583545,-3.160135 1.583545,-3.160133 -1.195299,-2.360856 -1.195297,-2.360853 -1.176365,-1.616173 -1.176363,-1.616173 -1.770514,2.767726 -1.770514,2.767728 -0.596896,0.14981 -0.596895,0.149813 0.150728,0.392789 0.150728,0.392792 2.709421,4.169972 2.70942,4.16997 0.18164,0.0089 0.181641,0.0089 v -0.256481 z m -42.308534,-1.443372 0.773378,-0.0045 1.779179,-3.286724 1.77918,-3.286727 -0.656578,-1.491935 -0.65658,-1.491938 -1.350192,-2.595042 -1.350196,-2.595041 -1.386063,2.325513 -1.386061,2.325516 -0.217417,0.148432 -0.217414,0.148434 -1.245587,2.160996 -1.24559,2.160995 0.533692,0.877567 0.533689,0.877569 1.444373,2.330052 1.44437,2.330052 0.325221,-0.46432 0.325221,-0.464317 z m 12.155897,47.533838 0.172622,-0.423828 0.364901,-1.042424 0.364904,-1.042423 0.10237,0.102373 0.102373,0.102372 -0.510291,1.363879 -0.510294,1.363879 h -0.129605 -0.129604 z m 3.377491,-6.073125 1.182546,-1.505191 0.565833,0.53157 0.565829,0.53157 v 0.121094 0.121094 l -0.557719,-0.523949 -0.557716,-0.52395 -0.924064,1.211712 -0.924064,1.211713 -0.266595,0.164765 -0.266595,0.164765 z M 38.630859,43.98471 38.328125,43.858072 v -0.334577 -0.334577 l 0.484375,-0.259231 0.484375,-0.25923 v 0.25071 0.250708 h -0.363281 -0.363282 v 0.216276 0.216276 l 0.385137,0.147792 0.385136,0.14779 0.241432,-0.149211 0.241432,-0.149215 -0.11952,-0.457041 L 39.58441,42.6875 h 0.2356 0.2356 l -0.07663,0.666016 -0.07663,0.666015 -0.484375,0.04591 -0.484375,0.04591 z"
       id="path987" />
  </g>
</svg>
